<svg xmlns="http://www.w3.org/2000/svg" xmlns:xlink="http://www.w3.org/1999/xlink" width="980" height="745" viewBox="0 0 980 745">
    <defs>
        <linearGradient id="a" x1="91.277%" x2="8.125%" y1="44.441%" y2="55.022%">
            <stop offset="0%" stop-color="#3DD5D3"/>
            <stop offset="100%" stop-color="#6BE7DE"/>
        </linearGradient>
        <linearGradient id="b" x1="39.838%" x2="58.162%" y1="1.368%" y2="100%">
            <stop offset="0%" stop-color="#1844B0"/>
            <stop offset="100%" stop-color="#061C53"/>
        </linearGradient>
        <path id="c" d="M173.297 6.059a5.905 5.905 0 0 0 5.9 5.91 5.906 5.906 0 0 0 5.902-5.91 5.905 5.905 0 0 0-5.901-5.91 5.905 5.905 0 0 0-5.901 5.91zM250.185.964h-36.608c-4.99 0-9.061 4.079-9.061 9.077v6.426c0 6.248-5.09 11.345-11.327 11.345h-90.642c-6.237 0-11.326-5.096-11.326-11.345v-6.426c0-5-4.072-9.077-9.062-9.077H32.927C14.923.964.192 15.721.192 33.754v569.783c0 18.033 14.73 32.79 32.735 32.79h229.882c18.004 0 32.735-14.755 32.735-32.79V33.754c0-18.034-14.732-32.79-32.735-32.79h-12.624zm-136.429 1.97a3.13 3.13 0 0 0-3.119 3.124 3.13 3.13 0 0 0 3.12 3.126h49.452a3.132 3.132 0 0 0 3.12-3.125v-.001a3.131 3.131 0 0 0-3.12-3.124h-49.453z"/>
        <linearGradient id="d" x1="39.793%" x2="60.777%" y1="0%" y2="98.181%">
            <stop offset="0%" stop-color="#49C3DD"/>
            <stop offset="100%" stop-color="#2A7CBF"/>
        </linearGradient>
        <path id="f" d="M.132 31.323c0 17.066 13.954 30.901 31.165 30.901 17.212 0 31.164-13.835 31.164-30.901S48.51.422 31.297.422C14.086.422.132 14.257.132 31.322"/>
        <path id="g" d="M29.175 93.86v23.411c0 36.494-21.352 68.713-29.102 78.562l29.102-1.09v35.021h186.922v-35.02l29.102 1.09c-7.75-9.85-29.102-42.069-29.102-78.563v-23.41c0-51.588-42.057-93.796-93.461-93.796-51.403 0-93.461 42.208-93.461 93.796"/>
        <linearGradient id="h" x1="6.693%" x2="95.726%" y1="0%" y2="98.181%">
            <stop offset="0%" stop-color="#FFF"/>
            <stop offset="100%" stop-color="#DBEAFF"/>
        </linearGradient>
        <linearGradient id="i" x1="30.201%" x2="109.224%" y1="36.505%" y2="89.975%">
            <stop offset="0%" stop-color="#FFF"/>
            <stop offset="100%" stop-color="#DBEAFF"/>
        </linearGradient>
        <linearGradient id="j" x1="57.792%" x2="42.137%" y1="75.795%" y2="3.044%">
            <stop offset="0%" stop-color="#3DD5D3"/>
            <stop offset="100%" stop-color="#3DFFD3"/>
        </linearGradient>
        <linearGradient id="k" x1="71.089%" x2="14.709%" y1="81.182%" y2="-3.037%">
            <stop offset="34.42%" stop-color="#2A7CBF"/>
            <stop offset="84.27%" stop-color="#49C3DD"/>
        </linearGradient>
        <linearGradient id="l" x1="62.513%" x2="-9.487%" y1="59.409%" y2="6.219%">
            <stop offset="0%" stop-color="#2A7CBF"/>
            <stop offset="67.97%" stop-color="#49C3DD"/>
        </linearGradient>
        <linearGradient id="m" x1="0%" x2="73.783%" y1="49.997%" y2="49.997%">
            <stop offset="0%" stop-color="#3DD5D3"/>
            <stop offset="100%" stop-color="#3DFFD3"/>
        </linearGradient>
        <path id="n" d="M87.46 1.689C53.645 15.868 28.677 56.043 28.677 93.655v23.36c0 35.456-20.289 66.867-28.525 77.566l-.122.15 11.092-.414v2.35h5.596c.274-.432.563-.853.866-1.263h-.002l.022-.028c.2-.27.407-.535.62-.795 8.235-10.7 28.525-42.11 28.525-77.567V93.655c0-40.512 17.716-79.526 52.148-93.398-3.88.244-7.697.726-11.439 1.432"/>
        <path id="o" d="M12.817 1.449l-.2 6.266-4.446.31c-.113 1.195-.247 7.637.045 10.006C5.45 15.683 5.58 7.59 1.727 9.724c-3.463 1.917-.734 7.128 2.806 9.637L.874 24.9v8.77c1.214 7.083 10.38 10.657 13.835 10.492 3.455-.164 6.221-3.12 6.872-4.914V28.21c1.226-.16 2.405-.471 3.473-.949 7.876-3.516 7.357-21.648 6.704-27.06-7.921 3.806-15.592 1.779-18.94 1.248"/>
        <linearGradient id="p" x1="48.39%" x2="48.39%" y1="0%" y2="79.482%">
            <stop offset="0%" stop-color="#FFD4B0"/>
            <stop offset="100%" stop-color="#FDBC85"/>
        </linearGradient>
        <path id="r" d="M.055.42H282.12v134.945H.055z"/>
        <linearGradient id="t" x1="2.721%" x2="239.312%" y1="0%" y2="268.6%">
            <stop offset="0%" stop-color="#FFF"/>
            <stop offset="100%" stop-color="#DBEAFF"/>
        </linearGradient>
    </defs>
    <g fill="none" fill-rule="evenodd">
        <path fill="url(#a)" d="M612.36 12.043C806.717 64.121 929.802 284.15 866.063 472.876c-16.155 47.83-40.55 92.248-71.134 131.063a337.525 337.525 0 0 0 20.835-56.86c47.86-178.618-57.956-362.164-236.346-409.964-178.39-47.8-282.383 42.476-330.243 221.093-1.961 7.32-4.762 12.638-8.234 16.335l56.86 17.24-137.587 85.963L95 330.281l55.678 16.885a397.245 397.245 0 0 1 11.55-62.882C216.47 81.85 418.002-40.036 612.36 12.044z"/>
        <g transform="translate(0 37)">
            <path fill="#FFF" d="M353.687 301.865c14.314-.276 18.586-23.865 23.162-32.026 2.602-4.64 6.917-6.392 8.39-9.872 1.681-3.97-1.497-12.763-6.429-12.905-5.846-.17-9.343 8.79-16.158 6.493-6.798-2.468-4.08-16.626-.933-26.625 3.147-9.998 14.136-20.21 15.903-31.577 1.767-11.365-1.296-17.506-5.425-18.71-5.877-1.711-12.26 3.88-15.527 10.35-3.429 6.791-5.291 21.625-18.097 17.823-4.085-1.213-7.16-9.128-4.95-18.666 2.211-9.538 13.187-14.912 16.161-28.153 4.612-20.533-12.204-25.572-24.024-11.923-2.711 3.13-4.65 8.066-7.246 12.426-5.363 9.003-15.297 8.622-18.34 6.293-4.666-3.572-6.965-5.87-5.106-15.475 1.859-9.604 6.413-21.976 7.74-31.599 1.326-9.622-2.825-27.18-15.64-30.324-7.309-1.793-29.902 6.351-30.255 46.137.315 26.256 23.683 26.56 23.73 36.175.045 9.615-16.912 8.273-16.657 16.399.257 8.125 7.653 14.048 17.405 15.388 9.753 1.34 32.263-3.038 34.018 7.359.491 2.714-1.246 4.409-3.534 5.299-3.87 1.508-8.972.864-10.473 4.556-1.571 3.866-.378 14.05 7.858 16.112 9.065 2.27 17.06-3.937 25.745 3.327 2.987 2.497 4.778 6.697 3.171 10.15-2.552 4.65-7.395 1.208-10.436 2.954-2.059 1.183-4.031 7.94-2.135 11.45 1.895 3.51 11.112 6.517 13.046 11.438 1.884 4.795 3.425 25.1 11.96 27.419.775-9.792.776-18.906.081-27.394-.697-8.52-2.097-16.41-4.124-23.723-2.022-7.294-4.67-14.017-7.866-20.218a99.594 99.594 0 0 0-11.167-17.097c-3.06-3.778-6.292-7.377-9.58-10.86-3.302-3.496-6.623-6.832-9.89-10.114-20.559-20.655-39.023-39.207-31.74-74.64l.155-.755 3.027.616-.156.759c-3.473 16.899-.757 29.819 5.307 41.003 6.09 11.232 15.588 20.775 25.596 30.83l.001.002c6.59 6.62 13.397 13.46 19.677 21.212a102.713 102.713 0 0 1 11.514 17.621c3.295 6.389 6.021 13.311 8.102 20.819 2.076 7.489 3.509 15.56 4.223 24.265.711 8.68.709 17.99-.084 27.98"/>
            <path fill="#DEF9FF" d="M979.753 668.154c1.14 7.775-1.697 15.383-7.873 22.67H0c5.425-185.145 188.405-76.736 210.563-87.428 11.653-7.355-.638-90.205 67.465-122.886 68.104-32.681 102.326 3.266 117.803 3.266 15.477 0 47.742-96.978 135.607-83.361 87.866 13.617 104.232 156.935 115.616 159.659 11.381 2.723 31.309-15.2 54.332-11.388 23.025 3.81 43.635 49.954 57.095 53.222 13.46 3.268 32.705.739 55.01-.35 22.306-1.088 60.799 43.575 75.618 42.485 14.817-1.088 70.56-39.761 90.644 24.111"/>
            <path fill="#B8E4FF" d="M274.322 338.873c3.382-5.64-11.807-10.903-22.84-22.393-10.943-11.396-19.77-25.41-14.272-28.305 2.486-1.122 25.002 17.622 31.249 15.292 3.532-1.767-10.59-22.516-7.75-27.056.653-.886 9.619-3.094 18.737-4.048l-.027.002c9.09 74.924 49.238 175.186 58.94 201.86l.002-.01c1.389 15.06 17.207 41.272 7.169 56.242-14.636 21.826-39.645 14.042-49.634 15.772 13.27-3.76 38.35-40.99 28.886-48.324-1.053-.98-4.969 1.843-8.58 7.31-5.787 8.759-11.746 21.89-16.701 29.798-3.174 5.067-8.542 7.75-14.497 7.249-9.106-.766-22.98-5.938-33.196-26.038a.675.675 0 0 1 .079-.746.677.677 0 0 1 .714-.232c14.924 4.024 31.531-2.252 36.178-4.569 4.693-2.132 17.353-21.366 13.312-25.937-1.594-1.801-8.797-.056-16.9 4.781-12.442 7.428-27.936 19.858-35.768 20.08-12.933.366-27.555-22.688-31.803-35.79 21.66-4.907 37.763-2.31 43.902-3.832 6.14-1.522 28.11-7.536 27.604-10.384-.506-2.849-27.307 1.208-32.664 1.975-5.357.765-33.283 7.682-45.913-.04-4.876-3.138-16.46-31.577-11.669-44.438 10.93 8.632 27.222 2.861 34.437 16.827 6.985 1.624 44.026 3.972 45.628-.39.908-1.789-42.774-7.592-53.38-12.485-3.874-2.02-5.644-4.624-7.909-5.501-2.265-.877-17.74-3.672-19.627-11.52-1.889-7.848-.143-27.65 2.603-32.151 9.399 9.693 66.598 38.51 75.642 33.949 5.288-2.812-6.407-7.969-12.602-9.26-6.195-1.292-52.732-13.839-65.083-33.455-2.743-6.735 3.34-34.088 5.148-38.752 7.942 20.414 75.004 61.398 76.88 45.552.301-2.74-57.034-17.974-71.699-47.555-1.49-4.192 8.502-21.685 11.385-25.042 12.033 11.401 44.528 51.592 53.826 42.023l.193-.46zm5.829-66.582c8.293-.809 16.54-.525 18.607 2.785 4.395 7.043-8.057 35.356-.782 38.498 2.892.675 9.65-29.57 9.355-34.577-.2-3.404-2.49-5.199-4.368-6.047a.457.457 0 0 1-.26-.512.456.456 0 0 1 .44-.368c5.785-.107 17.112 2.203 19.058 5.827.88 1.641 3.534 16.319-.688 29.463-6.598 20.549-20.407 42.735-10.421 46.845 7.501 3.464 21.405-47.572 18.172-79.283a1.34 1.34 0 0 1 .497-1.205c.369-.301.824-.39 1.278-.25 6.878 2.134 18.905 10.96 23.472 11.762 1.208 5.478 1.89 17.285-1.637 29.18-5.6 18.899-16.066 40.448-19.804 50.715-4.66 12.796 6.791 6.4 10.895-2.07 3.962-8.18 25.432-49.564 26.36-69.662.025-.53.279-.977.723-1.269.444-.29.953-.346 1.45-.157 9.11 3.467 23.142 17.142 20.78 32.105-.95 6.032-4.381 17.383-11.093 27.476-11.32 17.024-27.6 33.318-25.187 35.21.804.705 7.861-3.175 12.206-9.052 7.578-10.25 14.068-25.933 16.143-29.344 1.904-3.13 10.48-17.014 11.576-23.96a.454.454 0 0 1 .385-.383c.2-.032.39.067.481.249 8.097 16.141 16.16 18.893 15.397 35.704-.784 14.937-41.851 44.994-40.663 48.981 1.189 3.988 11.43 2.102 20.304-8.498 8.874-10.6 19.962-32.358 21.121-35.667 3.64 6.261 21.698 21.15 13.168 38.483-12.817 24.205-52.289 25.798-50.338 32.207.596 1.958 7.585-.896 8.7-1.344 14.082-5.651 41.684-20.192 46.25-22.217-8.887 6.623 4.804 30.313-14.696 41.609-8.895 5.152-43.448-2.953-46.57 7.047-1.52 2.692 4.465 9.087 31.677-.92-1.585 4.138 5.075 12.058 2.492 17.092-2.582 5.035-9.327 7.077-12.585 10.587-6.469 6.969-8.824 12-16.416 13.709-7.912 1.78-13.785-1.654-18.28-7.006-2.673-3.18-7.774-16.315-12.09-23.463-6.26-18.033-42.858-93.814-64.99-198.291l-.12.011zm9.105 162.109c.004-2.401 8.042-5.952 14.001-6.31 5.96-.358 10.154.44 10.737 4.948.954 7.383-24.608 4.903-24.738 1.362zm8.28 22.53c.025-1.81 6.745-4.715 11.084-5.775 4.338-1.06 10.157-.624 10.38 1.93.223 2.555-4.802 4.74-8.387 5.575-3.584.834-13.037.107-13.078-1.73zm-13.51-49.225c.054-1.876 6.467-5.8 13.334-6.474 6.867-.673 9.79 1.215 10.946 3.252 1.157 2.037.452 6.663-3.875 8.755-4.327 2.092-22.163.857-20.405-5.533zm-.143-27.92c.38-2.01 5.853-3.697 9.395-3.832 3.543-.136 6.351 2.21 6.903 3.566.553 1.356-.028 4.211-3.752 5.24-3.725 1.027-13.616-.775-12.546-4.974zm-2.032-28.241c3.113 1.238 6.333.874 7.19-.813.859-1.687-.97-4.06-4.084-5.297-3.112-1.239-6.333-.874-7.19.812-.858 1.688.97 4.06 4.084 5.298zm51.446 29.678c.778.818-.264 5.22-2.885 8.44-2.62 3.22-4.665 3.669-6.024 3.3-1.36-.368-3.035-2.629-2.095-5.365.94-2.734 9.022-9.833 11.004-6.375zm18.257 14.59c-1.68-1.715-9.908 1.368-14.42 5.28-4.512 3.913-6.954 7.417-4.221 11.048 4.475 5.947 21.022-13.705 18.641-16.329zm-35.421 79.43c-1.966 1.013-3.895 1.181-4.309.376-.414-.805.844-2.278 2.81-3.29 1.965-1.013 3.895-1.182 4.309-.376.414.804-.844 2.278-2.81 3.29zm39.894-30.472c-1.363.646-2.718.64-3.028-.015-.31-.655.543-1.709 1.905-2.355 1.363-.646 2.719-.64 3.029.015.31.655-.544 1.709-1.906 2.355zm-.225-19.244c-4.388 3.567-8.979 5.184-10.253 3.613-1.276-1.57 1.247-5.735 5.635-9.301s8.978-5.184 10.253-3.614c1.275 1.571-1.248 5.735-5.635 9.302zM725.898 475.74c-3.381-5.639 11.807-10.902 22.84-22.392 10.943-11.396 19.77-25.41 14.272-28.305-2.486-1.122-25.002 17.621-31.248 15.292-3.532-1.768 10.589-22.516 7.75-27.056-.653-.887-9.62-3.094-18.737-4.049l.026.003c-9.09 74.923-49.238 175.186-58.94 201.86l-.002-.01c-1.388 15.059-17.206 41.272-7.168 56.242 14.635 21.826 39.644 14.042 49.633 15.772-13.27-3.76-38.35-40.99-28.886-48.324 1.053-.98 4.97 1.843 8.581 7.31 5.787 8.758 11.745 21.889 16.7 29.798 3.175 5.067 8.542 7.75 14.498 7.249 9.106-.767 22.98-5.939 33.196-26.038a.675.675 0 0 0-.08-.746.677.677 0 0 0-.714-.233c-14.924 4.025-31.53-2.251-36.178-4.568-4.693-2.132-17.353-21.367-13.311-25.937 1.593-1.801 8.797-.056 16.9 4.781 12.442 7.428 27.936 19.858 35.768 20.08 12.933.366 27.555-22.688 31.802-35.791-21.66-4.906-37.762-2.31-43.901-3.831-6.14-1.522-28.11-7.537-27.604-10.384.506-2.849 27.306 1.208 32.663 1.974 5.357.766 33.283 7.683 45.913-.04 4.876-3.137 16.46-31.576 11.669-44.438-10.93 8.633-27.222 2.862-34.436 16.828-6.985 1.624-44.027 3.972-45.629-.391-.907-1.788 42.775-7.591 53.38-12.484 3.875-2.02 5.645-4.624 7.91-5.501 2.265-.877 17.739-3.672 19.627-11.52 1.888-7.848.142-27.65-2.603-32.152-9.4 9.694-66.599 38.51-75.643 33.95-5.287-2.812 6.407-7.969 12.603-9.26 6.195-1.292 52.731-13.84 65.082-33.455 2.743-6.736-3.34-34.088-5.148-38.752-7.942 20.414-75.004 61.398-76.88 45.552-.301-2.74 57.034-17.975 71.7-47.555 1.49-4.193-8.502-21.685-11.386-25.042-12.033 11.401-44.527 51.591-53.826 42.022l-.193-.459zm-5.828-66.58c-8.294-.81-16.541-.527-18.607 2.784-4.395 7.043 8.056 35.355.781 38.498-2.891.675-9.65-29.571-9.355-34.577.2-3.404 2.491-5.199 4.368-6.047a.457.457 0 0 0 .261-.513.456.456 0 0 0-.441-.367c-5.785-.108-17.111 2.203-19.057 5.827-.88 1.641-3.534 16.318.687 29.463 6.599 20.548 20.407 42.735 10.422 46.845-7.502 3.464-21.406-47.572-18.173-79.283a1.34 1.34 0 0 0-.497-1.206c-.368-.3-.823-.39-1.278-.249-6.878 2.134-18.905 10.96-23.472 11.762-1.207 5.478-1.89 17.284 1.637 29.18 5.601 18.899 16.067 40.447 19.805 50.714 4.659 12.796-6.792 6.402-10.895-2.07-3.962-8.179-25.432-49.563-26.36-69.661a1.562 1.562 0 0 0-.724-1.27 1.559 1.559 0 0 0-1.449-.157c-9.11 3.468-23.142 17.143-20.781 32.106.951 6.032 4.382 17.383 11.093 27.476 11.321 17.024 27.6 33.317 25.188 35.209-.804.706-7.862-3.174-12.206-9.051-7.578-10.25-14.069-25.933-16.144-29.344-1.903-3.13-10.48-17.014-11.576-23.961a.454.454 0 0 0-.384-.382.454.454 0 0 0-.482.248c-8.096 16.142-16.16 18.894-15.396 35.705.783 14.937 41.85 44.994 40.662 48.981-1.188 3.988-11.43 2.102-20.304-8.498-8.874-10.6-19.962-32.358-21.12-35.667-3.641 6.261-21.699 21.15-13.168 38.483 12.816 24.205 52.288 25.797 50.337 32.207-.595 1.958-7.585-.897-8.699-1.344-14.082-5.651-41.685-20.192-46.25-22.217 8.886 6.623-4.805 30.313 14.696 41.609 8.894 5.152 43.448-2.953 46.57 7.047 1.52 2.692-4.465 9.087-31.678-.92 1.586 4.138-5.074 12.058-2.492 17.092 2.583 5.035 9.328 7.077 12.586 10.587 6.468 6.969 8.823 12 16.416 13.708 7.911 1.782 13.785-1.654 18.28-7.005 2.672-3.18 7.773-16.315 12.09-23.463 6.26-18.033 42.857-93.814 64.989-198.292l.12.012zm-9.106 162.108c-.003-2.402-8.041-5.952-14-6.31-5.96-.358-10.155.44-10.738 4.948-.953 7.383 24.608 4.903 24.738 1.362zm-8.279 22.53c-.026-1.811-6.746-4.716-11.084-5.775-4.338-1.06-10.157-.624-10.38 1.93-.223 2.554 4.801 4.74 8.386 5.575 3.585.834 13.038.107 13.078-1.73zm13.51-49.225c-.054-1.876-6.468-5.8-13.335-6.474-6.866-.673-9.79 1.215-10.946 3.252-1.157 2.036-.451 6.663 3.875 8.755 4.327 2.092 22.164.857 20.405-5.533zm.143-27.92c-.38-2.01-5.854-3.697-9.396-3.833-3.542-.135-6.35 2.21-6.903 3.567-.553 1.356.029 4.211 3.753 5.24 3.724 1.027 13.616-.775 12.546-4.974zm2.032-28.241c-3.114 1.238-6.333.874-7.19-.813-.86-1.688.97-4.06 4.083-5.297 3.113-1.239 6.333-.874 7.19.812.858 1.688-.97 4.06-4.083 5.298zm-51.447 29.678c-.778.817.264 5.22 2.885 8.44 2.621 3.22 4.665 3.669 6.024 3.3 1.36-.368 3.035-2.629 2.095-5.365-.94-2.734-9.021-9.833-11.004-6.375zm-18.257 14.589c1.68-1.714 9.909 1.369 14.42 5.28 4.512 3.914 6.954 7.418 4.222 11.05-4.476 5.946-21.023-13.706-18.642-16.33zm35.422 79.43c1.965 1.013 3.894 1.182 4.308.376.414-.804-.844-2.277-2.81-3.29-1.964-1.012-3.894-1.181-4.308-.375-.414.804.844 2.277 2.81 3.29zm-39.894-30.472c1.362.647 2.718.64 3.028-.014.31-.655-.544-1.71-1.906-2.355-1.362-.646-2.718-.64-3.028.015-.31.655.543 1.709 1.906 2.354zm.225-19.244c4.387 3.567 8.978 5.185 10.253 3.614 1.275-1.57-1.248-5.735-5.636-9.301-4.387-3.567-8.977-5.184-10.253-3.614-1.275 1.571 1.248 5.735 5.636 9.301z"/>
            <path d="M397.927.4c-30.133 0-54.787 23.995-54.787 53.322v599.426c0 29.328 24.654 53.323 54.787 53.323h244.34c30.134 0 54.788-23.995 54.788-53.323V53.722C697.055 24.395 672.4.4 642.267.4h-244.34z"/>
            <path fill="url(#b)" d="M634.45 8.615H404.815c-28.32 0-51.49 23.184-51.49 51.52v579.167c0 28.337 23.17 51.52 51.49 51.52H634.45c28.32 0 51.49-23.183 51.49-51.52V60.135c0-28.336-23.17-51.52-51.49-51.52"/>
            <g transform="translate(371.41 29.248)">
                <mask id="e" fill="#fff">
                    <use xlink:href="#c"/>
                </mask>
                <path fill="url(#d)" d="M173.297 6.059a5.905 5.905 0 0 0 5.9 5.91 5.906 5.906 0 0 0 5.902-5.91 5.905 5.905 0 0 0-5.901-5.91 5.905 5.905 0 0 0-5.901 5.91zM250.185.964h-36.608c-4.99 0-9.061 4.079-9.061 9.077v6.426c0 6.248-5.09 11.345-11.327 11.345h-90.642c-6.237 0-11.326-5.096-11.326-11.345v-6.426c0-5-4.072-9.077-9.062-9.077H32.927C14.923.964.192 15.721.192 33.754v569.783c0 18.033 14.73 32.79 32.735 32.79h229.882c18.004 0 32.735-14.755 32.735-32.79V33.754c0-18.034-14.732-32.79-32.735-32.79h-12.624zm-136.429 1.97a3.13 3.13 0 0 0-3.119 3.124 3.13 3.13 0 0 0 3.12 3.126h49.452a3.132 3.132 0 0 0 3.12-3.125v-.001a3.131 3.131 0 0 0-3.12-3.124h-49.453z" mask="url(#e)"/>
            </g>
            <rect width="282.595" height="295.508" x="378.476" y="76.65" fill="url(#h)" rx="10"/>
            <g transform="translate(455.18 520.417)">
                <ellipse cx="67.769" cy="66.32" fill="#5FADD6" opacity=".054" rx="67.769" ry="66.32"/>
                <ellipse cx="67.769" cy="66.32" fill="#D7E8F7" rx="56.78" ry="55.267"/>
                <g fill="#2A7CBF" fill-rule="nonzero">
                    <path d="M92.52 45.063c0 4.696-3.911 8.503-8.736 8.503-4.825 0-8.735-3.807-8.735-8.503 0-4.695 3.91-8.502 8.735-8.502 4.825 0 8.735 3.807 8.735 8.502z"/>
                    <path d="M85.24 56.4c-5.62 0-10.191-4.449-10.191-9.92 0-5.47 4.57-9.92 10.19-9.92 5.622 0 10.192 4.45 10.192 9.92 0 5.471-4.57 9.92-10.191 9.92zm0-16.12c-3.513 0-6.37 2.783-6.37 6.2 0 3.418 2.857 6.2 6.37 6.2s6.37-2.782 6.37-6.2c0-3.417-2.857-6.2-6.37-6.2zM92.52 84.742c0 4.696-3.911 8.503-8.736 8.503-4.825 0-8.735-3.807-8.735-8.503s3.91-8.503 8.735-8.503c4.825 0 8.735 3.807 8.735 8.503z"/>
                    <path d="M85.24 96.079c-5.62 0-10.191-4.45-10.191-9.92s4.57-9.92 10.19-9.92c5.622 0 10.192 4.45 10.192 9.92s-4.57 9.92-10.191 9.92zm0-16.12c-3.513 0-6.37 2.783-6.37 6.2 0 3.417 2.857 6.2 6.37 6.2s6.37-2.783 6.37-6.2c0-3.417-2.857-6.2-6.37-6.2zM57.578 64.903c0 4.696-3.911 8.502-8.736 8.502-4.824 0-8.735-3.806-8.735-8.502 0-4.696 3.911-8.503 8.735-8.503 4.825 0 8.736 3.807 8.736 8.503z"/>
                    <path d="M47.387 76.24c-5.62 0-10.191-4.45-10.191-9.92 0-5.471 4.57-9.92 10.19-9.92 5.621 0 10.192 4.449 10.192 9.92 0 5.47-4.57 9.92-10.191 9.92zm0-16.12c-3.514 0-6.37 2.782-6.37 6.2 0 3.417 2.856 6.2 6.37 6.2 3.513 0 6.37-2.783 6.37-6.2 0-3.418-2.857-6.2-6.37-6.2z"/>
                    <path d="M57.25 64.903c-.898 0-1.77-.493-2.246-1.374-.705-1.304-.27-2.966.966-3.712l23.954-14.394c1.237-.748 2.814-.29 3.522 1.018.705 1.303.271 2.966-.966 3.711L58.525 64.546a2.464 2.464 0 0 1-1.275.357zM81.2 87.576c-.434 0-.872-.114-1.275-.357L55.97 72.825c-1.237-.742-1.67-2.405-.966-3.711.702-1.306 2.282-1.766 3.521-1.018L82.481 82.49c1.236.743 1.67 2.406.965 3.712-.477.881-1.35 1.374-2.246 1.374z"/>
                </g>
            </g>
            <g fill="#2A7CBF" fill-rule="nonzero" opacity=".303" transform="translate(461.236 182.55)">
                <path d="M88.116 47.843a5.279 5.279 0 0 0-7.441 0l-12.14 12.135-22.64-22.634a5.279 5.279 0 0 0-7.442 0L1.509 74.276a5.275 5.275 0 0 0 3.695 8.97h105.553a5.277 5.277 0 0 0 3.748-9.023l-26.389-26.38z"/>
                <ellipse cx="76.604" cy="18.137" rx="17.178" ry="17.672"/>
            </g>
            <rect width="295.716" height="636.401" x="372.42" y="29.248" fill="#308AC5" opacity=".149" rx="3"/>
            <rect width="380.494" height="197.678" x="334.068" y="361.064" fill="url(#i)" rx="3"/>
            <path fill="#2A7CBF" fill-rule="nonzero" d="M500.904 512.195v1.47c0 2.723-.872 4.93-2.616 6.617-1.744 1.689-3.997 2.533-6.758 2.533-2.943 0-5.382-.958-7.317-2.873-1.934-1.915-2.902-4.253-2.902-7.012 0-2.778.958-5.129 2.875-7.053 1.917-1.924 4.292-2.886 7.126-2.886 1.78 0 3.406.404 4.878 1.211 1.471.808 2.616 1.884 3.433 3.227l-3.215 1.852c-.454-.78-1.14-1.416-2.058-1.906-.917-.49-1.939-.735-3.065-.735-1.817 0-3.311.594-4.483 1.783-1.172 1.19-1.758 2.692-1.758 4.507 0 1.797.595 3.281 1.785 4.452 1.19 1.171 2.766 1.757 4.728 1.757 1.454 0 2.657-.323 3.611-.967.954-.644 1.603-1.53 1.948-2.655h-5.777v-3.322h9.565zm5.477 4.874c.473 1.707 1.754 2.56 3.843 2.56 1.344 0 2.361-.454 3.052-1.362l2.834 1.634c-1.345 1.943-3.325 2.914-5.94 2.914-2.253 0-4.061-.68-5.424-2.042-1.362-1.362-2.043-3.078-2.043-5.147 0-2.052.672-3.763 2.016-5.133 1.345-1.37 3.07-2.056 5.178-2.056 1.998 0 3.647.69 4.946 2.07s1.948 3.086 1.948 5.119c0 .454-.045.935-.136 1.443H506.38zm-.054-2.723h6.949c-.2-.926-.613-1.616-1.24-2.07a3.555 3.555 0 0 0-2.14-.68c-.944 0-1.725.24-2.343.721-.617.481-1.026 1.158-1.226 2.029zm20.71-2.151h-3.08v5.664c0 .472.119.817.355 1.035.236.217.581.34 1.036.367a15.27 15.27 0 0 0 1.69-.013v3.186c-2.417.272-4.12.045-5.11-.681-.99-.726-1.485-2.024-1.485-3.894v-5.664h-2.371v-3.377h2.37v-2.75l3.516-1.062v3.812h3.08v3.377zm2.698 10.239v-19.879h3.515v19.879h-3.515zm8.475-15.25c-.582 0-1.086-.213-1.513-.64-.427-.426-.64-.93-.64-1.511 0-.58.213-1.09.64-1.525.427-.436.931-.653 1.513-.653.6 0 1.112.217 1.54.653.426.436.64.944.64 1.525 0 .58-.214 1.085-.64 1.511a2.1 2.1 0 0 1-1.54.64zm-1.744 15.25v-13.616h3.515v13.616h-3.515zm14.306-13.997c1.49 0 2.72.5 3.693 1.498.971.998 1.457 2.378 1.457 4.139v8.36h-3.515v-7.925c0-.907-.245-1.602-.736-2.083-.49-.48-1.144-.721-1.962-.721-.908 0-1.635.281-2.18.844-.545.563-.817 1.407-.817 2.532v7.353h-3.515v-13.616h3.515v1.525c.854-1.27 2.207-1.906 4.06-1.906zm20.71 13.997h-4.087l-4.96-6.182v6.182h-3.515v-19.062h3.515v11.437l4.687-5.99h4.197l-5.477 6.725 5.64 6.89z" opacity=".8"/>
            <g fill-rule="nonzero">
                <path fill="url(#j)" d="M92.795 33.512C87.057 15.655 75.11 6.694 64.887 2.983 47.03-3.5 32.614 5.217 30.892 6.325c-.798.971 6.73-1.166 12.66.296 16.915 3.65 29.68 20.104 29.68 39.85 0 13.983-6.403 26.315-16.146 33.62-.196.146-3.415 2.092-7.067 3.82-.135.063-1.193.757-1.304.863-4.947 4.724 7.116 9.665 13.303 7.326 8.423-3.185 16.91-6.414 21.127-11.07 11.736-12.958 14.367-32.839 9.65-47.518z" transform="translate(478.393 388.256)"/>
                <path fill="url(#k)" d="M50.023 62.612c-.706 0-1.425-.034-2.14-.102a22.448 22.448 0 0 1-3.554-.637l-2.038-.538-10.286 9.044c-2.548 2.242-5.787 3.298-9.122 2.978-3.334-.32-6.34-1.979-8.461-4.67-2.122-2.69-3.124-6.11-2.82-9.63.303-3.52 1.874-6.693 4.423-8.933L28.971 38.74c2.33-2.048 5.162-3.046 7.98-3.046 3.581 0 7.136 1.614 9.602 4.739 1.782 2.26 2.762 5.034 2.854 7.949a9.062 9.062 0 0 0 6.057-1.778l1.413-1.041c-.542-3.682-2.003-7.259-4.42-10.323-7.117-9.021-19.86-10.248-28.405-2.735L11.105 43.89c-4.125 3.627-6.668 8.754-7.159 14.43-.49 5.677 1.132 11.204 4.57 15.56 3.983 5.049 9.728 7.657 15.513 7.657 4.552 0 9.128-1.613 12.89-4.922L49.867 65.23c.964-.85 1.83-1.776 2.605-2.762a21.89 21.89 0 0 1-2.448.144z" transform="translate(478.393 388.256)"/>
                <path fill="url(#l)" d="M74.537 16.63c-3.435-4.358-8.29-7.043-13.667-7.562-5.378-.513-10.61 1.197-14.736 4.826L33.19 25.28a20.77 20.77 0 0 0-2.604 2.76 22.054 22.054 0 0 1 8.152.597l2.027.54 10.285-9.05c2.25-1.978 5.037-3.036 7.952-3.036.389 0 .777.02 1.17.057 3.332.32 6.338 1.98 8.46 4.671 2.12 2.693 3.123 6.114 2.82 9.635-.304 3.52-1.875 6.693-4.422 8.936L54.085 51.778c-2.55 2.241-5.79 3.3-9.12 2.98-3.332-.321-6.338-1.98-8.46-4.671-1.838-2.333-2.772-5.144-2.866-7.965l-.194-.012c-.123-.01-.247-.022-.37-.022a9.171 9.171 0 0 0-5.478 1.818l-1.414 1.044c.542 3.684 2 7.264 4.42 10.33 3.435 4.358 8.29 7.044 13.667 7.562.629.06 1.256.09 1.88.09 4.706 0 9.213-1.712 12.856-4.915L71.95 46.629c8.541-7.516 9.702-20.973 2.586-30z" transform="translate(478.393 388.256)"/>
                <path fill="url(#m)" d="M80.065 80.832c-14.856 12.11-29.453 1.654-34.581-2.926l7.724-2.362c.1-.04.104-.184.007-.23L14.416 54.572a.118.118 0 0 0-.166.075C13.583 56.857 2.81 82.402.145 91.571c-.03.1.068.19.162.152l8.79-2.688c15.27 8.245 35.453 8.807 48.38 5.484 16.466-4.234 23.407-14.355 22.588-13.687z" transform="translate(478.393 388.256)"/>
            </g>
            <g transform="translate(611.617 420.57)">
                <rect width="63.657" height="46.473" x=".141" y=".489" fill="#9AC9E4" rx="2"/>
                <rect width="17.787" height="46.473" x=".141" y=".489" fill="#63ABD6" rx="2"/>
                <path fill="#63ABD6" d="M63.33 13.966v7.436H17.46v-7.436z"/>
                <path fill="#3493C9" d="M63.33 28.838v7.435H17.46v-7.435z" opacity=".498"/>
            </g>
            <g transform="translate(372.42 420.491)">
                <rect width="63.584" height="46.394" x=".141" y=".728" fill="#9AC9E4" rx="1"/>
                <g fill="#67ADD6" fill-rule="nonzero">
                    <path d="M1.465 4.484c8.71 7.176 23.993 19.801 28.484 23.737.603.532 1.25.802 1.922.802.67 0 1.315-.268 1.917-.797 4.496-3.94 19.778-16.566 28.488-23.742.542-.445.625-1.23.186-1.774a5.304 5.304 0 0 0-4.15-1.982H5.43a5.303 5.303 0 0 0-4.15 1.982 1.261 1.261 0 0 0 .186 1.774zM62.834 8.373a1.345 1.345 0 0 0-1.41.186 3780.409 3780.409 0 0 0-18.888 15.662 1.27 1.27 0 0 0-.46.997c.007.382.19.742.497.981 5.266 4.104 13.202 9.748 18.934 13.76a1.342 1.342 0 0 0 1.375.1c.441-.22.719-.661.719-1.144V9.54c0-.501-.3-.957-.767-1.167zM2.235 39.96c5.732-4.013 13.67-9.657 18.935-13.76.307-.24.49-.6.496-.982a1.27 1.27 0 0 0-.46-.997A3792.04 3792.04 0 0 0 2.317 8.559a1.352 1.352 0 0 0-1.41-.186C.44 8.583.142 9.04.142 9.54v29.376c0 .482.277.924.719 1.144a1.341 1.341 0 0 0 1.375-.1z"/>
                    <path d="M61.98 43.459c-5.535-3.853-15.73-11.035-21.817-15.84a1.353 1.353 0 0 0-1.701.028 276.222 276.222 0 0 0-2.903 2.489c-2.177 1.911-5.198 1.911-7.38-.003-.706-.62-1.705-1.476-2.9-2.486a1.345 1.345 0 0 0-1.7-.029c-6.066 4.79-16.273 11.98-21.817 15.84a1.284 1.284 0 0 0-.546.917c-.037.368.088.734.347 1.005 1.001 1.05 2.41 1.65 3.866 1.65h52.883a5.374 5.374 0 0 0 3.867-1.65c.258-.27.385-.635.347-1.003a1.287 1.287 0 0 0-.546-.918z"/>
                </g>
            </g>
            <g>
                <path fill="#FDBC85" d="M765.212 299.91c-5.422.58-16.247 1.36-22.296 4.757 1.134 9.418 5.905 32.332 8.417 39.956 1.897 5.761 6.053 8.62 10.415 8.273 4.177-.331 5.81-7.168 6.177-15.877.584-13.835-2.028-32.396-2.713-37.109"/>
                <path fill="#3DD5D3" d="M743.217 310.661c6.899.545 19.133-.918 25.984-2.262-.035-9.827-2.142-39.595-11.464-52.385-2.773-1.602-12.846-7.713-15.303-5.148-9.943 10.383-2.116 50.466.783 59.795"/>
                <path fill="#1640A6" d="M802.976 235.13l-9.843 36.113 19.183 5.25 9.842-36.112z"/>
                <path fill="#FDC08C" d="M815.944 262.465c-8.112-17.853-30.253-8.626-10.948 7.314-2.717 20.691-39.243 44.464-47.69 62.247-4.23 12.355-1.918 22.49 1.573 23.746 17.67 6.353 62.071-82.292 57.065-93.307"/>
                <path fill="#FDC391" d="M721.902 632.425l-13.78 15.918c-2.174 2.195-8.53 7.81-16.58 14.85-6.165-.807-10.36-7.152-8.532-10.086 1.828-2.933 25.137-27.756 25.137-27.756l13.755 7.074z"/>
                <path fill="#3DD5D3" d="M673.527 655.39c1.685 2.333 8.429 10.708 9.07 11.557.64.85.97 3.409 1.376 3.928 2.079 2.66 6.257 5.056 7.226 5.741.968.686 13.038 13.798 13.382 13.654.346-.144 1.845-1.753 1.288-3.461-.281-.86-1.783-4.356-3.397-8.62-1.592-4.204-3.123-8.848-3.723-11.07-.599-2.22.182-3.808-1.627-6.174-1.809-2.366-6.364-2.025-7.91-5.077-1.548-3.052 1.102-5.814-.03-7.29-1.133-1.478-6.735-1.194-15.655 6.812"/>
                <path fill="#26A7A5" d="M673.575 655.456l-.115-.006c-.483.186-2.406 1.084-2.617 1.51-.21.428 3.37 7.023 12.518 16.713 9.148 9.691 16.922 17.703 21.201 16.596v-.001c-.626-.18-12.408-12.974-13.363-13.651-.97-.686-5.148-3.083-7.225-5.742-.407-.52-.736-3.079-1.378-3.928-.635-.842-7.261-9.071-9.021-11.491"/>
                <path fill="#184656" d="M698.275 663.356c-.142-.99-.077-6.348-.52-6.71-.443-.362-4.901-1.582-5.36-1.169-.274.245-.693 1.491-.989 2.465 1.965 1.034 4.481 1.387 5.716 3.003.68.888.993 1.667 1.153 2.41"/>
                <path fill="#FDC391" d="M776.859 634.35l2.62 20.91c.179 3.087.106 11.578-.042 22.284-4.716 4.06-12.23 2.954-13.187-.369-.958-3.322-3.832-37.287-3.832-37.287l14.44-5.538z"/>
                <path fill="#3DD5D3" d="M761.612 685.774c2.859.3 13.582.862 14.64.95 1.06.09 3.18 1.553 3.838 1.597 3.363.225 7.933-1.292 9.089-1.557 1.156-.264 18.954-.512 19.077-.866.124-.354-.07-2.547-1.711-3.272-.827-.365-4.425-1.578-8.671-3.222-4.185-1.62-8.657-3.578-10.707-4.614-2.05-1.036-2.708-2.68-5.673-2.91-2.965-.23-5.753 3.396-9.054 2.512-3.3-.884-3.582-4.704-5.435-4.846-1.853-.142-5.383 4.227-5.393 16.228"/>
                <path fill="#26A7A5" d="M761.693 685.782l-.08.081c-.185.486-.802 2.52-.626 2.962.177.442 7.465 2.175 20.772 1.821 13.307-.353 24.448-.803 26.484-4.734h-.001c-.552.346-17.922.591-19.063.853-1.156.264-5.726 1.78-9.09 1.556-.656-.044-2.777-1.508-3.836-1.596-1.05-.088-11.587-.64-14.56-.943"/>
                <path fill="#184656" d="M784.054 672.63c-.83-.555-4.766-4.18-5.33-4.093-.565.09-4.448 2.6-4.448 3.22 0 .367.645 1.512 1.17 2.382 2.08-.774 4.023-2.415 6.048-2.258 1.113.086 1.901.371 2.56.75"/>
                <path fill="#11348C" d="M757.484 395.396c14.632 20.271 66.12 85.253 47.85 128.669-17.093 38.395-83.516 113.157-91.473 120.245-4.2-1.402-13.63-15.21-15.103-18.163 3.315-3.545 6.446-9.784 6.446-10.854 0-1.07-1.437-3.73-.994-6.535.441-2.805 11.456-13.586 12.34-16.65.884-3.064.296-4.875 1.326-7.051 1.03-2.178 14.28-18 16.306-21.397 2.026-3.397 2.837-15.137 8.214-19.936 3.169-3.175 20.668-12.361 29-36.004 8.334-23.643-51.763-75.735-59.707-108.484l45.795-3.84z"/>
                <path fill="#1844AF" d="M733.855 398.497c2.421 15.392 42.636 190.045 46.411 256.306-3.941.996-21.292 3.58-25.233 3.764.368-8.86-5.12-17.572-5.416-20.01-.294-2.435.994-6.349.221-9.671-.774-3.323-6.907-7.772-7.865-11.87-.314-1.607 1.27-6.59.534-8.99-.737-2.4-4.31-2.695-5.047-5.649-.736-2.953 3.315-10.041 2.578-12.035-.736-1.993-11.345-13.217-11.198-17.647.369-3.027 5.367-4.133 4.789-8.344-5.171-37.682-48.597-111.892-51.595-170.577l33.3 4.43 18.52.293z"/>
                <path fill="#6BE7DE" d="M707.101 245.787c-6.313 1.478-28.485 8-32.943 12.125-4.789 4.43-26.596 30.789-30.501 37.951.105.128.217.26.334.397 3.478 4.039 12.066 11.667 16.998 15.795 1.534 1.284 2.715 2.23 3.277 2.623 4.228-4.128 13.217-15.428 18.648-23.054-.335 35.837-.47 73.945-.964 108.186 1.17.286 2.453.54 3.83.767 21.128 3.472 64.63.136 71.705-5.181-.45-6.227-1.72-55.49-2.906-94.26-.755-24.667-1.478-45.086-1.936-47.468-5.115-4.635-21.371-7.767-26.376-8.508-2.201-.072-15.04.17-19.166.627"/>
                <path fill="#FDC08C" d="M677.326 390.522c-2.137-4.283-27.503-52.024-30.818-59.777.468-2.814 10.9-14.04 14.48-18.69-4.93-4.127-13.52-11.756-16.997-15.795-6.52 8.285-20.21 29.07-20.068 34.594.519 20.063 36.422 53.734 48.983 69.636.442 3.323 5.747 16.983 20.628 15.432 2.686-.538-2.42-9.239-7.755-15.345a51.566 51.566 0 0 1-3.829-.767 5226.921 5226.921 0 0 0 .122-9.03c-1.528-.343-3.165-.485-4.746-.258"/>
                <path fill="#133997" d="M715.865 232.3c-.29-2.398-.156-8.917-.045-10.127l4.426-.313.199-6.34c3.89.626 13.635 3.315 22.8-3.72 16.549-12.701-.096-29.73-8.583-17.921-2.258-1.571-13.222-5.29-22.125-.61-4.055 2.132-9.08 6.249-9.525 13.335-3.463-.313-8.739 4.078-9.186 12.143-.447 8.065 5.657 18.309 14.733 20.504l3.641-5.606c-3.523-2.538-6.24-7.813-2.793-9.752 3.833-2.158 3.705 6.03 6.458 8.406"/>
            </g>
            <g transform="translate(707.497 213.815)">
                <mask id="q" fill="#fff">
                    <use xlink:href="#o"/>
                </mask>
                <path fill="url(#p)" d="M12.817 1.449l-.2 6.266-4.446.31c-.113 1.195-.247 7.637.045 10.006C5.45 15.683 5.58 7.59 1.727 9.724c-3.463 1.917-.734 7.128 2.806 9.637L.874 24.9v8.77c1.214 7.083 10.38 10.657 13.835 10.492 3.455-.164 6.221-3.12 6.872-4.914V28.21c1.226-.16 2.405-.471 3.473-.949 7.876-3.516 7.357-21.648 6.704-27.06-7.921 3.806-15.592 1.779-18.94 1.248" mask="url(#q)"/>
            </g>
            <g>
                <path fill="#FDC392" d="M205.423 476.86c-16.736-1.662 1.595-27.778 2.357-28.683.763-.905 3.51-.335 6.197-.266 1.551 3.966 2.354 8.853 2.199 14.335-.072 2.515-.384 4.843-.962 6.928-1.05 4.517-6.224 8.098-9.791 7.687"/>
                <path fill="#E5AC8E" d="M202.268 463.338c.559 2.848-1.795 7.15-.205 11.986l-1.28 11.508c-5.454-2.277-10.332-3.292-14.757-3.725a102.905 102.905 0 0 0-9.042-.506l.987-9.449c2.177.858 5.033 1.5 8.532 1.868 8.632.905 11.684-1.86 12.16-2.927.475-1.068-2.9-4.263-1.714-8.657s4.76-2.945 5.319-.098"/>
                <path fill="#3DD5D3" d="M400.965 675.06c.303.884 2.323 3.968-14.2 9.188-2.56-.28-5.955-.238-6.343-.005-.389.233-.211 2.127-.211 2.127-1.945.978-7.677 3.46-8.726 1.795-2.215-3.516-2.368-9.56-.742-12.238l.532-.235c.25.73 2.178 2.758 4.19 1.867 2.01-.89 3.746-3.735 3.937-5.406 1.326-.012 9.358 4.36 14.024 3.518 4.665-.84 6.099-2.84 7.539-.61"/>
                <path fill="#E6A887" d="M379.584 672.4l-2.595-12.35-11.565 3.448 5.266 12.48c1.194 1.955 2.568 2.43 4.841 1.718 2.454-.769 3.782-3.08 4.053-5.296"/>
                <path fill="#3DD5D3" d="M456.095 665.441c.61.708 3.628 2.82-9.779 13.815-2.48.693-5.618 1.994-5.892 2.355-.275.36.592 2.053.592 2.053-1.443 1.632-5.846 6.068-7.437 4.913-3.36-2.44-5.74-7.996-5.224-11.087l.407-.415c.503.583 3.044 1.75 4.582.174 1.538-1.575 2.095-4.862 1.653-6.484 1.227-.505 10.305.565 14.325-1.951 4.02-2.517 4.61-4.908 6.773-3.373"/>
                <path fill="#E6A887" d="M435.257 670.926l-6.985-10.501-9.461 7.504 9.514 9.629c1.833 1.37 3.285 1.3 5.132-.207 1.993-1.627 2.37-4.268 1.8-6.425M99.07 679.345c2.066 2.07 5.365 8.278 1.85 8.957-3.514.68-11.036-1.173-13.07-1.482-2.035-.309-25.094 3.336-24.971 1.668.123-1.668 13.656-9.42 22.597-10.163l13.595 1.02z"/>
                <path fill="#40AFD4" d="M377.963 661.956l-19.544 6.487c-6.598-18.842-13.38-16.372-14.49-18.534-1.109-2.161 1.513-7.197.896-8.865-.617-1.668-8.262-5.065-9.68-7.845-1.418-2.78 2.282-10.07 1.048-12.171-1.232-2.1-25.742-33.25-33.14-33.744-7.399-.493-40.755 91.993-93.991 82.548-53.237-9.445-22.417-49.47-22.417-49.47 19.73-19.77 80.925-69.896 110.124-68.963 39.462 2.753 53.292 26.234 81.194 110.557"/>
                <path fill="#E6A887" d="M268.92 498.566c2.239-10.8 15.67-23.754.31-29.285-5.43.294-7.429 19.988-9.655 29.558l9.346-.273z"/>
                <path fill="#1844AF" d="M160.45 511.753s-5.306-12.348-14.952-4.063c-9.647 8.284-53.384 130.87-60.29 170.902l13.935 1.236c6.166-16.927 37.137-71.826 45.276-105.186l16.03-62.89zM250.431 568.781c9.477-8.733 18.784-56.935 20.067-73.205L259.372 493c-2.477 5.663-22.523 52.754-25.374 63.444l16.433 12.338z"/>
                <g transform="translate(146.46 554.624)">
                    <mask id="s" fill="#fff">
                        <use xlink:href="#r"/>
                    </mask>
                    <path fill="#48C1DC" d="M11.77 100.821L.055 112.435c7.646 11.738 24.332 26.19 69.177 22.276 45.808-4 87.34-85.29 102.138-92.703 6.536 12.293 53.761 35.02 67.718 46.34 5.107 4.141 6.363 5.954 6.307 7.592-.081 2.355-2.434 4.692-1.035 7.257 1.398 2.565 13.653 1.728 18.77 17.976 2.652-1.546 18.128-13.53 18.99-14.951C275.647 95.226 199.976-.925 169.15.434 138.322 1.792 87.111 50.219 63.682 72.46L11.77 100.821z" mask="url(#s)"/>
                </g>
                <path fill="#1844AF" d="M180.171 480.219c-4.363-.061-8.056.212-10.5.833-7.112 1.806-19.546 18.298-24.173 26.638-.11.196-.214.389-.315.577-3.388 6.326-4.244 55.207-5.91 82.923-1.745 29.027 1.007 55.647-.24 80.034 16.913-9.391 49.921-29.406 50.234-29.64 5.795-4.324 13.83-8.217 21.403-9.326-13.926-81.45 14.265-86.873 6.106-106.15-.941-39.161-4.435-44.355-36.605-45.89"/>
                <path fill="#FFF" d="M269.268 462.7h11.212c1.26 0 2.006 1.032 1.657 2.296l-6.383 23.124c-.349 1.263-1.665 2.296-2.926 2.296h-11.211c-1.26 0-2.006-1.033-1.658-2.296l6.383-23.124c.35-1.264 1.666-2.296 2.926-2.296"/>
                <path fill="#E6A887" d="M260.793 481.032c.757-.76 2.557-2.133 2.967-1.477.409.657.184 6.99-1.699 7.75-1.882.759-3.949 1.742-3.437-.513s2.169-5.76 2.169-5.76M274.981 480.113c-.707-1.73-3.92-5.584-2.63-6.342s6.383 3.136 6.751 4.94c.369 1.805-2.945 3.835-2.945 3.835l-1.176-2.433z"/>
                <path fill="#E6A887" d="M275.234 479.859c-1.541.533-4.403 2.89-5.949 5.705-.99 1.805-2.791 6.107 1.584 6.451 4.174.328 9.806-11.027 8.21-13.396l-3.845 1.24z"/>
                <path fill="#1B4CC4" d="M205.406 524.095c10.048 13.276 21.618 29.994 29.764 39.37 5.148 5.924 11.183 8.734 15.865 4.859 5.647-4.675 4.44-14.188 1.069-20.172-5.694-8.515-16.123-30.314-26.152-45.653-.488-.052-18.686-28.245-28.559-12.357-5.401 8.692 6.214 32.15 8.013 33.953"/>
                <path fill="#061D56" d="M209.414 454.008c.446 3.187 1.3 26.198-19.995 26.605-21.293.406-20.845-15.897-21.035-24.502-.191-8.604-2.204-28.182 15.267-30.468 34.94-4.57 35.88 22.135 25.763 28.365"/>
                <path fill="#061D56" d="M185.205 526.804c-2.886 6.534-23.347 21.34-28.278 31.038-4.932 9.7-1.681 16.458-8.656 20.42-5.444 3.09-14.48-.144-21.347-.75-1.638-.143-3.153-.139-4.466.138-6.863 1.441-8.942 8.763-20.983 9.858-17.338 1.578-29.214-4.701-34.001-15.211-7.245-15.907-.08-39.726 14.482-46.563 9.13-4.9 16.461-3.788 24.187-11.077 10.44-9.853 5.243-24.707 13.637-32.364 8.394-7.657 27.842-2.733 38.072-10.033 10.231-7.3 11.498-13.674 25.454-14.184 16.979.908-1.453 22.333-2.578 25.233-2.666 6.868 3.463 15.469 5.389 23.571.387 1.63.729 3.31.963 5.028.653 4.77.474 9.83-1.875 14.896"/>
                <path fill="url(#t)" d="M746.748 26.96c0 14.889-12.06 26.958-26.938 26.958-14.877 0-26.938-12.07-26.938-26.959C692.872 12.07 704.932 0 719.81 0c14.877 0 26.938 12.07 26.938 26.96" transform="translate(62.575 53.42)"/>
            </g>
        </g>
        <path fill="#B8E4FF" d="M182 255c0 14.912-12.088 27-27 27s-27-12.088-27-27 12.088-27 27-27 27 12.088 27 27"/>
    </g>
</svg>
