<?xml version="1.0" encoding="UTF-8"?>
<svg width="1647px" height="1080px" viewBox="0 0 1647 1080" version="1.1" xmlns="http://www.w3.org/2000/svg" xmlns:xlink="http://www.w3.org/1999/xlink">
    <!-- Generator: Sketch 59.1 (86144) - https://sketch.com -->
    <title>Group 4</title>
    <desc>Created with Sketch.</desc>
    <defs>
        <linearGradient x1="4.15143037%" y1="75.3379561%" x2="84.8727377%" y2="17.7423118%" id="linearGradient-1">
            <stop stop-color="#E6F3F9" offset="0%"></stop>
            <stop stop-color="#EDF6FB" stop-opacity="0.720623944" offset="54.4948269%"></stop>
            <stop stop-color="#FFFFFF" stop-opacity="0" offset="100%"></stop>
        </linearGradient>
        <linearGradient x1="6.86068523%" y1="87.6810974%" x2="50%" y2="45.4602755%" id="linearGradient-2">
            <stop stop-color="#0B2C7E" offset="0%"></stop>
            <stop stop-color="#1656A5" stop-opacity="0" offset="100%"></stop>
        </linearGradient>
    </defs>
    <g id="Page-1" stroke="none" stroke-width="1" fill="none" fill-rule="evenodd">
        <g id="Apple-TV" transform="translate(-273.000000, 0.000000)">
            <g id="Group-4" transform="translate(200.000000, -151.000000)">
                <g>
                    <path d="M1152.40607,456 L334.694401,1250.3605 L334.375643,1250.04058 C303.494589,1282.33825 259.862668,1302.47349 211.5,1302.47349 C117.887735,1302.47349 42,1227.03347 42,1133.97349 C42,1085.55843 62.5402958,1041.9125 95.4305654,1011.17772 L95.2552059,1011.00364 L593.484764,514.744996 L1152.40607,456 Z" id="Combined-Shape-Copy-2" fill="url(#linearGradient-1)" transform="translate(597.203035, 879.236745) rotate(186.000000) translate(-597.203035, -879.236745) "></path>
                    <path d="M1961.40607,842 L1143.6944,1636.3605 L1143.37564,1636.04058 C1112.49459,1668.33825 1068.86267,1688.47349 1020.5,1688.47349 C926.887735,1688.47349 851,1613.03347 851,1519.97349 C851,1471.55843 871.540296,1427.9125 904.430565,1397.17772 L904.255206,1397.00364 L1402.48476,900.744996 L1961.40607,842 Z" id="Combined-Shape-Copy-4" fill="url(#linearGradient-1)" opacity="0.498256138" transform="translate(1406.203035, 1265.236745) rotate(186.000000) translate(-1406.203035, -1265.236745) "></path>
                    <path d="M1972.40722,98 L2211.84642,337.356859 L1736.65171,812.388163 L1736.33295,812.068236 C1705.45189,844.365911 1661.81997,864.50115 1613.45731,864.50115 C1519.84504,864.50115 1443.95731,789.06113 1443.95731,696.00115 C1443.95731,647.586573 1464.49719,603.94104 1497.38688,573.206307 L1497.21251,573.031304 L1972.40722,98 Z" id="Combined-Shape-Copy-3" fill="#E6F3F9" transform="translate(1827.901861, 481.250575) rotate(6.000000) translate(-1827.901861, -481.250575) "></path>
                    <g id="Group-Copy-3" transform="translate(1123.957305, 0.000000)" fill="#E6F3F9" stroke="#E6F3F9" stroke-width="25">
                        <path d="M367.443275,440.928423 C361.827541,440.928423 356.10329,440.659136 350.419732,440.120562 C340.965223,439.227663 331.456455,437.526904 322.124027,435.103321 L305.900794,430.865595 L224.025013,502.113249 C203.745972,519.772802 177.959712,528.092351 151.413837,525.569558 C124.881526,523.046765 100.953614,509.979262 84.0657172,488.776459 C67.17782,467.587829 59.2018493,440.644963 61.6163438,412.922582 C64.0308383,385.200201 76.5373775,360.199035 96.8299832,342.553654 L199.880067,252.881105 C218.422843,236.752235 240.967168,228.886222 263.389412,228.886222 C291.902151,228.886222 320.197857,241.5994 339.825798,266.217895 C354.014345,284.019179 361.813976,305.873939 362.546463,328.834194 C380.058331,329.982206 396.674937,325.106696 410.754966,314.831273 L422,306.625108 C417.686465,277.627157 406.061623,249.45124 386.81349,225.314627 C330.16782,154.251223 228.731921,144.585239 160.719136,203.771673 L57.6690522,293.444221 C24.8292136,322.016982 4.59086614,362.395849 0.684268245,407.111653 C-3.22232965,451.827457 9.69114673,495.366902 37.0508966,529.679727 C68.7648754,569.449155 114.491061,590 160.542797,590 C196.773779,590 233.194666,577.286822 263.14525,551.222682 L366.195334,461.550133 C373.872884,454.860478 380.763689,447.561385 386.935571,439.794583 C380.451704,440.517406 373.940707,440.928423 367.443275,440.928423 Z" id="Path"></path>
                        <path d="M597.890348,60.2637133 C570.547373,25.9394286 531.906433,4.78625514 489.101657,0.703068852 C446.296881,-3.33758425 404.644958,10.1312594 371.808975,38.7135635 L268.770989,128.416062 C261.09434,135.093773 254.217907,142.395304 248.04675,150.150523 C269.693271,147.726131 291.760246,149.271503 312.932063,154.857529 L329.072014,159.110848 L410.938182,87.8252208 C428.841321,72.2438953 451.030362,63.90739 474.236627,63.90739 C477.328987,63.90739 480.421347,64.063345 483.540834,64.3610774 C510.07003,66.8847133 533.995133,79.9565806 550.881047,101.152287 C567.766962,122.362172 575.741996,149.314037 573.327785,177.045677 C570.913574,204.777317 558.408503,229.772655 538.131843,247.438107 L435.093856,337.140606 C414.803633,354.79188 389.006838,363.128385 362.504768,360.60475 C335.975572,358.081114 312.050469,345.009246 295.164555,323.81354 C280.530095,305.439201 273.09758,283.293587 272.351616,261.077084 L270.805436,260.97784 C269.828901,260.906951 268.838803,260.807707 267.862269,260.807707 C252.169897,260.807707 237.087859,265.755735 224.257276,275.127214 L213,283.350298 C217.313029,312.372111 228.922943,340.571617 248.182379,364.730469 C275.525354,399.054754 314.166295,420.207927 356.971071,424.291113 C361.975812,424.758979 366.96699,425 371.931042,425 C409.392002,425 445.266094,411.516979 474.263753,386.280619 L577.301739,296.57812 C645.292976,237.371919 654.529368,131.36503 597.890348,60.2637133 Z" id="Path"></path>
                    </g>
                    <g id="Group-Copy-4" opacity="0.601050967" transform="translate(771.000000, 835.000000)" fill="#E6F3F9" stroke="#E6F3F9" stroke-width="25">
                        <path d="M367.443275,440.928423 C361.827541,440.928423 356.10329,440.659136 350.419732,440.120562 C340.965223,439.227663 331.456455,437.526904 322.124027,435.103321 L305.900794,430.865595 L224.025013,502.113249 C203.745972,519.772802 177.959712,528.092351 151.413837,525.569558 C124.881526,523.046765 100.953614,509.979262 84.0657172,488.776459 C67.17782,467.587829 59.2018493,440.644963 61.6163438,412.922582 C64.0308383,385.200201 76.5373775,360.199035 96.8299832,342.553654 L199.880067,252.881105 C218.422843,236.752235 240.967168,228.886222 263.389412,228.886222 C291.902151,228.886222 320.197857,241.5994 339.825798,266.217895 C354.014345,284.019179 361.813976,305.873939 362.546463,328.834194 C380.058331,329.982206 396.674937,325.106696 410.754966,314.831273 L422,306.625108 C417.686465,277.627157 406.061623,249.45124 386.81349,225.314627 C330.16782,154.251223 228.731921,144.585239 160.719136,203.771673 L57.6690522,293.444221 C24.8292136,322.016982 4.59086614,362.395849 0.684268245,407.111653 C-3.22232965,451.827457 9.69114673,495.366902 37.0508966,529.679727 C68.7648754,569.449155 114.491061,590 160.542797,590 C196.773779,590 233.194666,577.286822 263.14525,551.222682 L366.195334,461.550133 C373.872884,454.860478 380.763689,447.561385 386.935571,439.794583 C380.451704,440.517406 373.940707,440.928423 367.443275,440.928423 Z" id="Path"></path>
                        <path d="M597.890348,60.2637133 C570.547373,25.9394286 531.906433,4.78625514 489.101657,0.703068852 C446.296881,-3.33758425 404.644958,10.1312594 371.808975,38.7135635 L268.770989,128.416062 C261.09434,135.093773 254.217907,142.395304 248.04675,150.150523 C269.693271,147.726131 291.760246,149.271503 312.932063,154.857529 L329.072014,159.110848 L410.938182,87.8252208 C428.841321,72.2438953 451.030362,63.90739 474.236627,63.90739 C477.328987,63.90739 480.421347,64.063345 483.540834,64.3610774 C510.07003,66.8847133 533.995133,79.9565806 550.881047,101.152287 C567.766962,122.362172 575.741996,149.314037 573.327785,177.045677 C570.913574,204.777317 558.408503,229.772655 538.131843,247.438107 L435.093856,337.140606 C414.803633,354.79188 389.006838,363.128385 362.504768,360.60475 C335.975572,358.081114 312.050469,345.009246 295.164555,323.81354 C280.530095,305.439201 273.09758,283.293587 272.351616,261.077084 L270.805436,260.97784 C269.828901,260.906951 268.838803,260.807707 267.862269,260.807707 C252.169897,260.807707 237.087859,265.755735 224.257276,275.127214 L213,283.350298 C217.313029,312.372111 228.922943,340.571617 248.182379,364.730469 C275.525354,399.054754 314.166295,420.207927 356.971071,424.291113 C361.975812,424.758979 366.96699,425 371.931042,425 C409.392002,425 445.266094,411.516979 474.263753,386.280619 L577.301739,296.57812 C645.292976,237.371919 654.529368,131.36503 597.890348,60.2637133 Z" id="Path"></path>
                    </g>
                </g>
            </g>
        </g>
    </g>
</svg>