<svg xmlns="http://www.w3.org/2000/svg" width="124" height="27" viewBox="0 0 124 27">
    <g fill="none" fill-rule="nonzero">
        <path fill="#3DD8D3" d="M26.028 12.24v2.16c0 3.768-1.17 6.774-3.51 9.018-2.34 2.244-5.31 3.366-8.91 3.366-3.912 0-7.158-1.26-9.738-3.78C1.29 20.484 0 17.388 0 13.716c0-3.672 1.278-6.78 3.834-9.324C6.39 1.848 9.516.576 13.212.576c2.352 0 4.506.528 6.462 1.584 1.956 1.056 3.474 2.448 4.554 4.176l-4.896 2.808c-.552-.864-1.374-1.572-2.466-2.124s-2.322-.828-3.69-.828c-2.136 0-3.906.708-5.31 2.124-1.404 1.416-2.106 3.228-2.106 5.436 0 2.184.72 3.966 2.16 5.346 1.44 1.38 3.36 2.07 5.76 2.07 3.336 0 5.484-1.296 6.444-3.888h-6.732v-5.04h12.636zm7.884 7.2c.624 1.68 2.064 2.52 4.32 2.52 1.464 0 2.616-.456 3.456-1.368l4.32 2.484c-1.776 2.472-4.392 3.708-7.848 3.708-3.024 0-5.442-.9-7.254-2.7-1.812-1.8-2.718-4.068-2.718-6.804 0-2.712.894-4.974 2.682-6.786 1.788-1.812 4.086-2.718 6.894-2.718 2.616 0 4.794.906 6.534 2.718 1.74 1.812 2.61 4.074 2.61 6.786 0 .768-.072 1.488-.216 2.16h-12.78zm-.108-4.032h7.74c-.528-1.896-1.8-2.844-3.816-2.844-2.088 0-3.396.948-3.924 2.844zm26.712-1.944h-3.708v6.372c0 .72.288 1.176.864 1.368.576.192 1.524.252 2.844.18v4.896c-3.432.36-5.808.03-7.128-.99-1.32-1.02-1.98-2.838-1.98-5.454v-6.372h-2.88V8.28h2.88V4.86l5.4-1.62v5.04h3.708v5.184z"/>
        <path fill="#2A7CBF" d="M66.934 26.28V0h5.4v26.28h-5.4zM81.262 5.76a3.089 3.089 0 0 1-2.268.936c-.888 0-1.65-.318-2.286-.954-.636-.636-.954-1.398-.954-2.286 0-.888.318-1.65.954-2.286.636-.636 1.398-.954 2.286-.954.888 0 1.65.318 2.286.954.636.636.954 1.398.954 2.286 0 .888-.324 1.656-.972 2.304zm-4.968 20.52v-18h5.4v18h-5.4zM96.202 7.776c1.92 0 3.522.66 4.806 1.98 1.284 1.32 1.926 3.144 1.926 5.472V26.28h-5.4V16.02c0-1.056-.294-1.866-.882-2.43-.588-.564-1.338-.846-2.25-.846-1.032 0-1.848.312-2.448.936-.6.624-.9 1.548-.9 2.772v9.828h-5.4v-18h5.4v1.692c1.08-1.464 2.796-2.196 5.148-2.196zm27.72 18.504h-6.12l-5.76-7.956v7.956h-5.4V1.08h5.4v15.084l5.4-7.884h6.3l-6.552 9 6.732 9z"/>
    </g>
</svg>
