<svg xmlns="http://www.w3.org/2000/svg" xmlns:xlink="http://www.w3.org/1999/xlink" width="36" height="40" viewBox="0 0 36 40">
    <defs>
        <path id="a" d="M0 .05h20.09v39.453H0z"/>
        <path id="c" d="M.038.045H24.27V19.02H.038z"/>
        <path id="e" d="M.004.037H24.26v19.01H.004z"/>
    </defs>
    <g fill="none" fill-rule="evenodd">
        <g transform="translate(0 .476)">
            <mask id="b" fill="#fff">
                <use xlink:href="#a"/>
            </mask>
            <path fill="#FFF" d="M.993 39.503c-.486-.436-.893-.853-.967-1.49a3.013 3.013 0 0 1-.025-.341V1.969C0 1.28.298.72.761.243c.245-.253.326-.258.575-.006.617.625 1.217 1.267 1.83 1.895 1.33 1.36 2.668 2.712 3.994 4.077.73.751 1.434 1.528 2.163 2.28 1.15 1.188 2.315 2.36 3.466 3.547.998 1.03 1.98 2.076 2.978 3.105.763.786 1.548 1.55 2.31 2.336.645.664 1.27 1.348 1.906 2.02.185.195.1.358-.044.51-.397.418-.8.83-1.2 1.244-.763.787-1.522 1.578-2.288 2.362-1.229 1.257-2.466 2.506-3.691 3.767-.935.963-1.85 1.944-2.783 2.908-.998 1.032-2.01 2.05-3.009 3.081-1.06 1.093-2.109 2.196-3.166 3.292-.55.57-1.105 1.135-1.662 1.699-.376.381-.759.756-1.148 1.143" mask="url(#b)"/>
        </g>
        <g transform="translate(2.338)">
            <mask id="d" fill="#fff">
                <use xlink:href="#c"/>
            </mask>
            <path fill="#FFF" d="M.122.045l.696.36c1.206.63 2.414 1.258 3.62 1.89 1.002.527 2.007 1.048 3 1.591 1.534.838 3.058 1.693 4.585 2.541 1.247.693 2.496 1.382 3.74 2.082 1.324.745 2.643 1.502 3.966 2.25 1.258.712 2.52 1.416 3.78 2.126.205.116.398.256.606.365.212.11.181.253.054.384-.46.479-.936.944-1.398 1.42-.648.668-1.284 1.346-1.934 2.01a95.112 95.112 0 0 1-1.917 1.91c-.062.06-.251.06-.333.01a2.62 2.62 0 0 1-.468-.412c-.621-.642-1.233-1.293-1.855-1.934-.35-.362-.713-.71-1.068-1.068-.588-.592-1.177-1.184-1.761-1.781a2916.999 2916.999 0 0 1-6.47-6.643C5.73 5.87 4.499 4.588 3.259 3.316A275.781 275.781 0 0 0 .712.746C.499.533.263.344.038.144l.084-.1z" mask="url(#d)"/>
        </g>
        <g transform="translate(2.805 20.952)">
            <mask id="f" fill="#fff">
                <use xlink:href="#e"/>
            </mask>
            <path fill="#FFF" d="M24.26 5.635L.05 19.048l-.046-.044c.178-.201.348-.412.535-.604.652-.667 1.309-1.33 1.966-1.991.584-.587 1.177-1.165 1.755-1.757.593-.607 1.17-1.23 1.76-1.84.755-.78 1.518-1.553 2.274-2.332.823-.848 1.639-1.702 2.464-2.547.896-.915 1.797-1.824 2.7-2.733.913-.919 1.836-1.828 2.745-2.752.708-.719 1.393-1.46 2.103-2.177.34-.342.445-.282.718.004.86.901 1.732 1.792 2.604 2.683.586.6 1.18 1.192 1.769 1.79.28.283.556.571.863.887" mask="url(#f)"/>
        </g>
        <path fill="#FFF" d="M35.99 19.861c.084.97-.392 1.6-1.2 2.042a394.519 394.519 0 0 0-6.597 3.696c-.33.188-.485.147-.747-.13-.592-.629-1.2-1.242-1.805-1.856-.62-.628-1.246-1.249-1.867-1.875-.553-.559-1.1-1.123-1.656-1.678-.176-.176-.202-.322-.013-.512.966-.963 1.93-1.93 2.883-2.905.824-.842 1.636-1.697 2.448-2.551.332-.349.43-.358.835-.12.947.558 1.902 1.099 2.851 1.652.973.567 1.943 1.14 2.913 1.713.313.185.617.385.934.561.771.43 1.09 1.093 1.022 1.963"/>
    </g>
</svg>
